<?xml version="1.0" encoding="UTF-8"?>
<svg id="Layer_1" data-name="Layer 1" xmlns="http://www.w3.org/2000/svg" viewBox="0 0 281.68 155.14">
  <defs>
    <style>
      .cls-1, .cls-2, .cls-3, .cls-4, .cls-5 {
        stroke-width: 0px;
      }

      .cls-2 {
        fill: #111123;
      }

      .cls-3 {
        fill: #89e000;
      }

      .cls-4 {
        fill: #96ff00;
      }

      .cls-5 {
        fill: #0068ff;
      }
    </style>
  </defs>
  <g>
    <path class="cls-1" d="m117.68,69.94l-8.08-16.92c-2.19.34-4.54.59-7.15.59h-5.22v16.41h-11.53V.59h15.32c21.8,0,29.79,12.71,29.79,26.51,0,8.75-3.37,17.09-10.94,21.97l11.61,20.87h-13.8Zm-14.9-27.52c10.94,0,16.75-6.23,16.75-15.32s-5.98-15.23-16.75-15.23h-5.55v30.55h5.55Z"/>
    <path class="cls-1" d="m138.81.67h11.62v69.27h-11.62V.67Z"/>
    <path class="cls-1" d="m156.82,59.17c6.65,0,10.61-3.7,10.61-11.19v-25.59c0-14.22,9.17-22.3,22.22-22.39v11.53c-6.73,0-10.69,3.7-10.69,11.03v25.42c0,14.22-9.17,22.73-22.14,22.73v-11.53Z"/>
    <path class="cls-1" d="m196.54.59h11.53v28.2h26.09V.59h11.62v69.35h-11.62v-30.22h-26.09v30.22h-11.53V.59Z"/>
    <path class="cls-1" d="m256.97.67h11.62v69.27h-11.62V.67Z"/>
  </g>
  <g>
    <path class="cls-1" d="m0,119.2c0-19.27,15.66-36.02,36.02-36.02,18.69,0,34.09,14.48,35.86,31.9h-6.9c-1.6-13.72-13.89-25.08-28.95-25.08-16.67,0-29.21,13.64-29.21,29.21s12.54,29.12,29.21,29.12c15.23,0,27.52-11.53,29.04-25.33h6.82c-1.52,17.59-17.09,32.15-35.86,32.15C15.66,155.14,0,138.47,0,119.2Z"/>
    <path class="cls-1" d="m112.95,155.14c-20.96,0-36.02-16.75-36.02-36.02s15.07-35.94,36.02-35.94,35.94,16.75,35.94,35.94-15.07,36.02-35.94,36.02Zm0-65.15c-16.5,0-29.21,12.88-29.21,29.12s12.71,29.21,29.21,29.21,29.12-12.96,29.12-29.21-12.71-29.12-29.12-29.12Z"/>
    <path class="cls-1" d="m156.54,84.44h10.35c26.01,0,37.79,15.82,37.79,34.68s-11.78,34.76-37.79,34.76h-10.35v-69.44Zm10.86,62.62c20.28,0,30.47-11.87,30.47-27.94s-10.18-27.86-30.47-27.86h-4.04v55.8h4.04Z"/>
    <path class="cls-1" d="m209.73,119.2c0-19.27,15.49-36.02,36.02-36.02s37.12,17.17,35.85,37.37h-65.15c.42,15.15,12.88,28.03,29.29,28.03,13.21,0,24.32-8.92,27.61-20.28h7.24c-3.7,15.07-17.84,26.85-34.85,26.85-20.54,0-36.02-16.67-36.02-35.94Zm64.73-4.88c-1.68-13.47-13.89-24.66-28.7-24.66s-26.77,11.11-28.79,24.66h57.49Z"/>
  </g>
  <rect class="cls-5" x="10.41" y=".68" width="25.96" height="69.27"/>
  <path class="cls-4" d="m10.41.68h40.01c9.56,0,17.32,7.76,17.32,17.32h0c0,9.56-7.76,17.32-17.32,17.32H10.41V.68h0Z"/>
  <circle class="cls-2" cx="57.36" cy="56.22" r="13.72"/>
  <rect class="cls-3" x="10.41" y=".68" width="25.96" height="34.63"/>
</svg>